<svg width="22" height="22" viewBox="0 0 22 22" fill="none" xmlns="http://www.w3.org/2000/svg">
<path d="M18.8293 9.23286C18.46 7.49536 17.4807 5.91393 16.0714 4.78C14.6303 3.6269 12.8393 2.99909 10.9936 3C8.81788 3 6.78574 3.83822 5.26646 5.36036C3.79825 6.83321 2.99361 8.77786 3.00004 10.8346C3.00009 12.3426 3.44279 13.8174 4.27325 15.0761L4.42861 15.2921L3.57147 19L7.67146 17.98C7.67146 17.98 7.7536 18.0075 7.81431 18.0307C7.87503 18.0539 8.39753 18.2543 8.95181 18.4093C9.41252 18.5379 10.3711 18.7307 11.1222 18.7307C13.2525 18.7307 15.2418 17.9057 16.7232 16.4071C18.1914 14.9204 19 12.9436 19 10.8389C19.0001 10.299 18.9429 9.76066 18.8293 9.23286ZM7.57146 12.1429C7.34542 12.1429 7.12446 12.0758 6.93652 11.9503C6.74858 11.8247 6.6021 11.6462 6.5156 11.4374C6.4291 11.2285 6.40646 10.9987 6.45056 10.777C6.49466 10.5553 6.6035 10.3517 6.76334 10.1919C6.92317 10.032 7.1268 9.9232 7.3485 9.8791C7.57019 9.83501 7.79998 9.85764 8.00881 9.94414C8.21764 10.0306 8.39613 10.1771 8.5217 10.3651C8.64728 10.553 8.71431 10.774 8.71431 11C8.71431 11.3031 8.5939 11.5938 8.37958 11.8081C8.16525 12.0224 7.87456 12.1429 7.57146 12.1429ZM11 12.1429C10.774 12.1429 10.553 12.0758 10.3651 11.9503C10.1771 11.8247 10.0307 11.6462 9.94416 11.4374C9.85766 11.2285 9.83503 10.9987 9.87912 10.777C9.92322 10.5553 10.0321 10.3517 10.1919 10.1919C10.3517 10.032 10.5554 9.9232 10.7771 9.8791C10.9988 9.83501 11.2285 9.85764 11.4374 9.94414C11.6462 10.0306 11.8247 10.1771 11.9503 10.3651C12.0758 10.553 12.1429 10.774 12.1429 11C12.1429 11.3031 12.0225 11.5938 11.8081 11.8081C11.5938 12.0224 11.3031 12.1429 11 12.1429ZM14.4286 12.1429C14.2025 12.1429 13.9816 12.0758 13.7936 11.9503C13.6057 11.8247 13.4592 11.6462 13.3727 11.4374C13.2862 11.2285 13.2636 10.9987 13.3077 10.777C13.3518 10.5553 13.4606 10.3517 13.6205 10.1919C13.7803 10.032 13.9839 9.9232 14.2056 9.8791C14.4273 9.83501 14.6571 9.85764 14.8659 9.94414C15.0748 10.0306 15.2533 10.1771 15.3788 10.3651C15.5044 10.553 15.5714 10.774 15.5714 11C15.5714 11.3031 15.451 11.5938 15.2367 11.8081C15.0224 12.0224 14.7317 12.1429 14.4286 12.1429Z" fill="#353535"/>
</svg>
