<svg width="22" height="22" viewBox="0 0 22 22" fill="none" xmlns="http://www.w3.org/2000/svg">
<path d="M16.7143 4H5.28571C4.67971 4.00068 4.09871 4.24673 3.6702 4.68416C3.24169 5.1216 3.00066 5.7147 3 6.33333V15.6667C3.00066 16.2853 3.24169 16.8784 3.6702 17.3158C4.09871 17.7533 4.67971 17.9993 5.28571 18H16.7143C17.3203 17.9993 17.9013 17.7533 18.3298 17.3158C18.7583 16.8784 18.9993 16.2853 19 15.6667V6.33333C18.9993 5.7147 18.7583 5.1216 18.3298 4.68416C17.9013 4.24673 17.3203 4.00068 16.7143 4ZM13.8571 6.33333C14.1962 6.33333 14.5276 6.43597 14.8095 6.62826C15.0915 6.82055 15.3112 7.09387 15.4409 7.41364C15.5707 7.73341 15.6046 8.08527 15.5385 8.42474C15.4723 8.76421 15.3091 9.07603 15.0693 9.32077C14.8296 9.56551 14.5241 9.73218 14.1916 9.79971C13.859 9.86723 13.5144 9.83258 13.2011 9.70012C12.8879 9.56767 12.6201 9.34337 12.4318 9.05558C12.2434 8.7678 12.1429 8.42945 12.1429 8.08333C12.1433 7.61935 12.3241 7.17451 12.6455 6.84643C12.9669 6.51834 13.4026 6.33382 13.8571 6.33333ZM5.28571 16.8333C4.98261 16.8333 4.69192 16.7104 4.47759 16.4916C4.26327 16.2728 4.14286 15.9761 4.14286 15.6667V13.201L7.53 10.1276C7.8568 9.83168 8.28181 9.67412 8.71844 9.687C9.15507 9.69987 9.57047 9.88219 9.88 10.1968L12.1996 12.5597L8.01321 16.8333H5.28571ZM17.8571 15.6667C17.8571 15.9761 17.7367 16.2728 17.5224 16.4916C17.3081 16.7104 17.0174 16.8333 16.7143 16.8333H9.62964L13.9661 12.4066C14.2731 12.14 14.6627 11.9932 15.0657 11.9921C15.4688 11.9911 15.8591 12.1358 16.1675 12.4007L17.8571 13.8379V15.6667Z" fill="#353535"/>
</svg>
