<svg width="22" height="22" viewBox="0 0 22 22" fill="none" xmlns="http://www.w3.org/2000/svg">
<path d="M16.6536 3.19195C16.5457 3.10483 16.4199 3.04511 16.2863 3.01748C16.1526 2.98984 16.0146 2.99504 15.8832 3.03267L9.08822 4.94622C8.85245 5.01256 8.64441 5.1591 8.4968 5.36281C8.34919 5.56651 8.27038 5.81583 8.27277 6.07157V14.1429C8.27277 14.3836 8.12413 14.5915 7.89402 14.6725L7.88993 14.6743L6.11722 15.3172C5.43915 15.5547 5.00006 16.2143 5.00006 16.9968C4.99758 17.3151 5.06824 17.6293 5.20607 17.9129C5.34391 18.1966 5.54487 18.4413 5.79199 18.6264C6.11022 18.8686 6.49331 18.9994 6.88664 19C7.09242 18.9996 7.29678 18.9643 7.49175 18.8954L7.50471 18.8907L8.24925 18.6071C8.57222 18.4942 8.85334 18.2782 9.0532 17.9894C9.25306 17.7006 9.36162 17.3535 9.36367 16.9968V9.42546C9.36367 9.1651 9.52629 8.95368 9.77822 8.88725L9.78537 8.88511L15.7386 7.21941C15.7587 7.21397 15.7798 7.21342 15.8001 7.21779C15.8205 7.22216 15.8396 7.23135 15.8561 7.24465C15.8725 7.25795 15.8858 7.27501 15.895 7.29453C15.9042 7.31404 15.909 7.3355 15.9091 7.35727V12.4261C15.9091 12.6672 15.7642 12.8683 15.5303 12.9504L15.5218 12.9536L13.7869 13.6004C13.4496 13.7167 13.1562 13.9423 12.9494 14.2448C12.7425 14.5473 12.6329 14.9108 12.6364 15.2829C12.6333 15.6021 12.7037 15.9174 12.8415 16.2021C12.9794 16.4868 13.1807 16.7326 13.4283 16.9186C13.6708 17.1022 13.9519 17.2219 14.2479 17.2676C14.5439 17.3133 14.846 17.2836 15.1287 17.1811L15.141 17.1768L15.8856 16.8929C16.2085 16.78 16.4896 16.564 16.6895 16.2753C16.8893 15.9866 16.9979 15.6395 17 15.2829V3.92873C17.0007 3.7862 16.9698 3.64544 16.9097 3.51757C16.8496 3.3897 16.7619 3.27823 16.6536 3.19195Z" fill="#353535"/>
</svg>
