<svg width="22" height="22" viewBox="0 0 22 22" fill="none" xmlns="http://www.w3.org/2000/svg">
<path d="M17.5682 5.85718H16.7175C16.7167 5.85718 16.7158 5.85752 16.7152 5.85812C16.7146 5.85872 16.7143 5.85954 16.7143 5.86039V16.7143C16.7143 17.0174 16.8347 17.3081 17.049 17.5224C17.2634 17.7368 17.554 17.8572 17.8572 17.8572C18.1603 17.8572 18.4509 17.7368 18.6653 17.5224C18.8796 17.3081 19 17.0174 19 16.7143V7.28896C19 6.90923 18.8492 6.54505 18.5806 6.27654C18.3121 6.00803 17.948 5.85718 17.5682 5.85718Z" fill="#353535"/>
<path d="M15.5714 16.7143V4.42857C15.5714 4.24097 15.5345 4.0552 15.4627 3.88188C15.3909 3.70856 15.2857 3.55107 15.153 3.41842C15.0204 3.28576 14.8629 3.18054 14.6895 3.10874C14.5162 3.03695 14.3305 3 14.1429 3H4.42857C4.04969 3 3.68633 3.15051 3.41842 3.41842C3.15051 3.68633 3 4.04969 3 4.42857V17C3 17.5304 3.21071 18.0391 3.58579 18.4142C3.96086 18.7893 4.46957 19 5 19H17.2446C17.2501 19 17.2554 18.999 17.2604 18.997C17.2654 18.9949 17.27 18.9919 17.2738 18.9881C17.2776 18.9843 17.2806 18.9797 17.2827 18.9747C17.2847 18.9697 17.2858 18.9643 17.2857 18.9589C17.2857 18.95 17.2827 18.9412 17.2772 18.9341C17.2717 18.927 17.264 18.9219 17.2554 18.9196C16.772 18.787 16.3455 18.4995 16.0413 18.1011C15.7371 17.7027 15.572 17.2155 15.5714 16.7143ZM5.28571 6.42857C5.28571 6.27702 5.34592 6.13167 5.45308 6.02451C5.56025 5.91735 5.70559 5.85714 5.85714 5.85714H8.14286C8.29441 5.85714 8.43975 5.91735 8.54692 6.02451C8.65408 6.13167 8.71429 6.27702 8.71429 6.42857V8.71429C8.71429 8.86584 8.65408 9.01118 8.54692 9.11835C8.43975 9.22551 8.29441 9.28571 8.14286 9.28571H5.85714C5.70559 9.28571 5.56025 9.22551 5.45308 9.11835C5.34592 9.01118 5.28571 8.86584 5.28571 8.71429V6.42857ZM12.7143 16.1429H5.87321C5.56571 16.1429 5.30179 15.9064 5.28643 15.5989C5.28271 15.5217 5.29471 15.4445 5.32171 15.372C5.34871 15.2995 5.39015 15.2332 5.44351 15.1772C5.49687 15.1212 5.56104 15.0766 5.63214 15.0462C5.70325 15.0157 5.77979 15 5.85714 15H12.6982C13.0057 15 13.2696 15.2364 13.285 15.5439C13.2887 15.6212 13.2767 15.6984 13.2497 15.7709C13.2227 15.8434 13.1813 15.9096 13.1279 15.9656C13.0746 16.0216 13.0104 16.0662 12.9393 16.0967C12.8682 16.1271 12.7916 16.1429 12.7143 16.1429ZM12.7143 13.8571H5.87321C5.56571 13.8571 5.30179 13.6207 5.28643 13.3132C5.28271 13.236 5.29471 13.1587 5.32171 13.0863C5.34871 13.0138 5.39015 12.9475 5.44351 12.8915C5.49687 12.8355 5.56104 12.7909 5.63214 12.7605C5.70325 12.73 5.77979 12.7143 5.85714 12.7143H12.6982C13.0057 12.7143 13.2696 12.9507 13.285 13.2582C13.2887 13.3355 13.2767 13.4127 13.2497 13.4852C13.2227 13.5577 13.1813 13.6239 13.1279 13.6799C13.0746 13.7359 13.0104 13.7805 12.9393 13.811C12.8682 13.8414 12.7916 13.8571 12.7143 13.8571ZM12.7143 11.5714H5.87321C5.56571 11.5714 5.30179 11.335 5.28643 11.0275C5.28271 10.9502 5.29471 10.873 5.32171 10.8005C5.34871 10.7281 5.39015 10.6618 5.44351 10.6058C5.49687 10.5498 5.56104 10.5052 5.63214 10.4748C5.70325 10.4443 5.77979 10.4286 5.85714 10.4286H12.6982C13.0057 10.4286 13.2696 10.665 13.285 10.9725C13.2887 11.0498 13.2767 11.127 13.2497 11.1995C13.2227 11.2719 13.1813 11.3382 13.1279 11.3942C13.0746 11.4502 13.0104 11.4948 12.9393 11.5252C12.8682 11.5557 12.7916 11.5714 12.7143 11.5714ZM12.7143 9.28571H10.4446C10.1371 9.28571 9.87321 9.04929 9.85786 8.74179C9.85414 8.66452 9.86614 8.58731 9.89314 8.51482C9.92014 8.44234 9.96158 8.37609 10.0149 8.32009C10.0683 8.26409 10.1325 8.2195 10.2036 8.18904C10.2747 8.15858 10.3512 8.14286 10.4286 8.14286H12.6982C13.0057 8.14286 13.2696 8.37929 13.285 8.68679C13.2887 8.76405 13.2767 8.84126 13.2497 8.91375C13.2227 8.98624 13.1813 9.05249 13.1279 9.10849C13.0746 9.16448 13.0104 9.20907 12.9393 9.23953C12.8682 9.27 12.7916 9.28571 12.7143 9.28571ZM12.7143 7H10.4446C10.1371 7 9.87321 6.76357 9.85786 6.45607C9.85414 6.37881 9.86614 6.3016 9.89314 6.22911C9.92014 6.15662 9.96158 6.09037 10.0149 6.03437C10.0683 5.97837 10.1325 5.93379 10.2036 5.90333C10.2747 5.87286 10.3512 5.85715 10.4286 5.85714H12.6982C13.0057 5.85714 13.2696 6.09357 13.285 6.40107C13.2887 6.47833 13.2767 6.55555 13.2497 6.62804C13.2227 6.70052 13.1813 6.76677 13.1279 6.82277C13.0746 6.87877 13.0104 6.92335 12.9393 6.95382C12.8682 6.98428 12.7916 6.99999 12.7143 7Z" fill="#353535"/>
</svg>
