<svg width="22" height="22" viewBox="0 0 22 22" fill="none" xmlns="http://www.w3.org/2000/svg">
<path d="M13.9999 11C13.2289 11 12.4834 10.6349 11.8999 9.97227C11.3325 9.32596 10.986 8.46409 10.9249 7.54613C10.8597 6.56693 11.1413 5.66648 11.7177 5.01023C12.294 4.35398 13.0999 4 13.9999 4C14.8935 4 15.7016 4.36034 16.2761 5.015C16.8563 5.67602 17.1386 6.57488 17.0734 7.54573C17.0108 8.46488 16.6646 9.32636 16.0984 9.97187C15.5164 10.6349 14.7713 11 13.9999 11ZM18.9435 18H9.05667C8.89771 18.0009 8.74068 17.9631 8.59765 17.8895C8.45463 17.816 8.32942 17.7086 8.23167 17.5756C8.12799 17.4315 8.05639 17.2643 8.02223 17.0867C7.98807 16.9091 7.99224 16.7256 8.03443 16.5499C8.35017 15.2052 9.13242 14.0899 10.2964 13.3251C11.3295 12.6466 12.6447 12.2727 13.9999 12.2727C15.3818 12.2727 16.6624 12.6307 17.7015 13.3088C18.8681 14.0696 19.6515 15.1912 19.9657 16.5523C20.0074 16.7281 20.0111 16.9116 19.9766 17.0891C19.942 17.2667 19.8701 17.4336 19.7662 17.5776C19.6686 17.7099 19.5437 17.8168 19.4011 17.89C19.2585 17.9632 19.1019 18.0008 18.9435 18ZM6.91243 11.1591C5.59281 11.1591 4.43257 9.85772 4.32495 8.25846C4.2717 7.43914 4.51244 6.68147 4.99994 6.12585C5.48219 5.57579 6.16244 5.27273 6.91243 5.27273C7.66243 5.27273 8.33742 5.57738 8.8223 6.13062C9.31354 6.69062 9.55354 7.4467 9.49729 8.25926C9.38967 9.85812 8.2298 11.1591 6.91243 11.1591ZM9.37467 12.4099C8.71505 12.0679 7.85893 11.8969 6.91281 11.8969C5.80806 11.8969 4.73519 12.2023 3.89145 12.7568C2.93483 13.3864 2.29133 14.3031 2.03146 15.41C1.99343 15.5692 1.98983 15.7355 2.02094 15.8964C2.05204 16.0572 2.11704 16.2086 2.21108 16.3391C2.30031 16.4606 2.41462 16.5587 2.54523 16.626C2.67583 16.6933 2.81925 16.728 2.96445 16.7273H7.12693C7.19719 16.7272 7.26521 16.7011 7.31914 16.6533C7.37308 16.6056 7.4095 16.5393 7.42205 16.466C7.42618 16.4409 7.43143 16.4158 7.43743 16.3912C7.75543 15.0365 8.50055 13.8919 9.60154 13.0574C9.64204 13.0265 9.67461 12.9853 9.6963 12.9376C9.718 12.8899 9.72813 12.8373 9.72579 12.7844C9.72344 12.7315 9.70869 12.6801 9.68287 12.6347C9.65705 12.5894 9.62097 12.5517 9.57792 12.5249C9.51904 12.4883 9.45154 12.4497 9.37467 12.4099Z" fill="#353535"/>
</svg>
