<svg width="22" height="22" viewBox="0 0 22 22" fill="none" xmlns="http://www.w3.org/2000/svg">
<path d="M11 2.0625C6.07191 2.0625 2.0625 6.07191 2.0625 11C2.0625 15.9281 6.07191 19.9375 11 19.9375C15.9281 19.9375 19.9375 15.9281 19.9375 11C19.9375 6.07191 15.9281 2.0625 11 2.0625ZM8.84211 7.08211C9.38652 6.50504 10.1527 6.1875 11 6.1875C11.8473 6.1875 12.6066 6.50719 13.1532 7.08727C13.707 7.67508 13.9764 8.46484 13.9129 9.31391C13.7857 11 12.4794 12.375 11 12.375C9.52059 12.375 8.21176 11 8.08715 9.31348C8.02398 8.45754 8.29297 7.6652 8.84211 7.08211ZM11 18.5625C9.99043 18.5632 8.99101 18.3611 8.06101 17.9683C7.131 17.5755 6.28934 16.9999 5.58594 16.2757C5.98879 15.7012 6.5021 15.2127 7.09586 14.8388C8.19113 14.1367 9.5773 13.75 11 13.75C12.4227 13.75 13.8089 14.1367 14.9029 14.8388C15.4971 15.2126 16.0109 15.701 16.4141 16.2757C15.7107 17 14.8691 17.5756 13.9391 17.9684C13.009 18.3612 12.0096 18.5633 11 18.5625Z" fill="#353535"/>
</svg>
