<svg width="22" height="22" viewBox="0 0 22 22" fill="none" xmlns="http://www.w3.org/2000/svg">
<path d="M14.812 17.9984C14.7068 17.9988 14.6041 17.9637 14.5186 17.898L10.4992 14.7765L6.47987 17.898C6.394 17.9647 6.29055 18.0004 6.18447 18C6.07839 17.9996 5.97518 17.963 5.88977 17.8957C5.80435 17.8283 5.74115 17.7335 5.70931 17.6251C5.67747 17.5168 5.67863 17.4003 5.71263 17.2927L7.28024 12.3189L3.21745 9.33444C3.12945 9.26986 3.06303 9.17683 3.0279 9.06894C2.99277 8.96106 2.99076 8.84396 3.02218 8.73476C3.0536 8.62557 3.1168 8.53 3.20253 8.46201C3.28827 8.39403 3.39205 8.3572 3.49872 8.3569H8.51095L10.0236 3.37044C10.0561 3.26278 10.1197 3.16895 10.2052 3.1024C10.2906 3.03585 10.3936 3 10.4992 3C10.6049 3 10.7078 3.03585 10.7933 3.1024C10.8787 3.16895 10.9423 3.26278 10.9749 3.37044L12.4875 8.35857H17.4997C17.6065 8.35851 17.7105 8.39509 17.7965 8.46294C17.8825 8.5308 17.946 8.62636 17.9776 8.73564C18.0092 8.84492 18.0073 8.96217 17.9722 9.07022C17.9371 9.17828 17.8707 9.27145 17.7825 9.33611L13.7182 12.3189L15.2849 17.2913C15.3103 17.3719 15.3174 17.4577 15.3057 17.5417C15.294 17.6258 15.2638 17.7056 15.2176 17.7747C15.1714 17.8438 15.1106 17.9001 15.04 17.939C14.9695 17.9779 14.8914 17.9982 14.812 17.9984Z" fill="#353535"/>
</svg>
