<svg width="24" height="24" viewBox="0 0 24 24" fill="none" xmlns="http://www.w3.org/2000/svg">
<path d="M9.53874 19.8113H7.33749C7.14289 19.8113 6.95626 19.734 6.81866 19.5964C6.68105 19.4587 6.60374 19.2721 6.60374 19.0775V4.40251C6.60374 4.20791 6.68105 4.02128 6.81866 3.88367C6.95626 3.74607 7.14289 3.66876 7.33749 3.66876H9.53874C9.73335 3.66876 9.91998 3.74607 10.0576 3.88367C10.1952 4.02128 10.2725 4.20791 10.2725 4.40251V19.0775C10.2725 19.2721 10.1952 19.4587 10.0576 19.5964C9.91998 19.734 9.73335 19.8113 9.53874 19.8113ZM16.1425 19.8113H13.9412C13.7466 19.8113 13.56 19.734 13.4224 19.5964C13.2848 19.4587 13.2075 19.2721 13.2075 19.0775V4.40251C13.2075 4.20791 13.2848 4.02128 13.4224 3.88367C13.56 3.74607 13.7466 3.66876 13.9412 3.66876H16.1425C16.3371 3.66876 16.5237 3.74607 16.6613 3.88367C16.7989 4.02128 16.8762 4.20791 16.8762 4.40251V19.0775C16.8762 19.2721 16.7989 19.4587 16.6613 19.5964C16.5237 19.734 16.3371 19.8113 16.1425 19.8113Z" fill="#353535"/>
</svg>
