<svg width="21" height="22" viewBox="0 0 21 22" fill="none" xmlns="http://www.w3.org/2000/svg">
<path d="M4.51482 3.29214C4.68587 3.29214 4.84993 3.3601 4.97088 3.48105C5.09184 3.60201 5.15979 3.76606 5.15979 3.93712V9.43673L14.543 3.82062C14.7597 3.68879 15.0078 3.61759 15.2615 3.61447C15.5151 3.61135 15.765 3.67642 15.9849 3.80288C16.4686 4.077 16.7693 4.6091 16.7693 5.18676V16.8769C16.7693 17.4562 16.4686 17.9867 15.9849 18.2608C15.7649 18.3871 15.5151 18.4521 15.2614 18.4489C15.0078 18.4457 14.7597 18.3745 14.543 18.2426L5.15979 12.6269V18.1266C5.15979 18.2976 5.09184 18.4617 4.97088 18.5826C4.84993 18.7036 4.68587 18.7715 4.51482 18.7715C4.34376 18.7715 4.17971 18.7036 4.05875 18.5826C3.9378 18.4617 3.86984 18.2976 3.86984 18.1266V3.93712C3.86984 3.76606 3.9378 3.60201 4.05875 3.48105C4.17971 3.3601 4.34376 3.29214 4.51482 3.29214Z" fill="#353535"/>
</svg>
