<svg width="21" height="22" viewBox="0 0 21 22" fill="none" xmlns="http://www.w3.org/2000/svg">
<path d="M16.4852 3.29214C16.3141 3.29214 16.1501 3.3601 16.0291 3.48105C15.9082 3.60201 15.8402 3.76606 15.8402 3.93712V9.43673L6.45704 3.82062C6.24032 3.68879 5.99216 3.61759 5.73851 3.61447C5.48486 3.61135 5.23503 3.67642 5.01512 3.80288C4.53139 4.077 4.23067 4.6091 4.23067 5.18676V16.8769C4.23067 17.4562 4.53139 17.9867 5.01512 18.2608C5.23507 18.3871 5.48492 18.4521 5.73857 18.4489C5.99221 18.4457 6.24034 18.3745 6.45704 18.2426L15.8402 12.6269V18.1266C15.8402 18.2976 15.9082 18.4617 16.0291 18.5826C16.1501 18.7036 16.3141 18.7715 16.4852 18.7715C16.6562 18.7715 16.8203 18.7036 16.9412 18.5826C17.0622 18.4617 17.1302 18.2976 17.1302 18.1266V3.93712C17.1302 3.76606 17.0622 3.60201 16.9412 3.48105C16.8203 3.3601 16.6562 3.29214 16.4852 3.29214Z" fill="#353535"/>
</svg>
