<svg width="25" height="25" viewBox="0 0 25 25" fill="none" xmlns="http://www.w3.org/2000/svg">
<path d="M7.69498 20.8765C7.41341 20.876 7.13682 20.8022 6.89243 20.6624C6.34211 20.3505 6 19.7452 6 19.088V5.78867C6 5.12967 6.34211 4.52615 6.89243 4.21431C7.14264 4.07051 7.42689 3.99656 7.71545 4.00019C8.00402 4.00382 8.28632 4.0849 8.53283 4.23494L19.8992 11.0387C20.136 11.1872 20.3313 11.3935 20.4667 11.6381C20.6021 11.8828 20.6731 12.1578 20.6731 12.4374C20.6731 12.717 20.6021 12.992 20.4667 13.2367C20.3313 13.4813 20.136 13.6876 19.8992 13.8361L8.531 20.6417C8.27872 20.7942 7.98977 20.8754 7.69498 20.8765Z" fill="#353535"/>
</svg>
