<svg width="24" height="24" viewBox="0 0 24 24" fill="none" xmlns="http://www.w3.org/2000/svg">
<path d="M20.6069 15.9819C20.5291 15.8883 20.4528 15.7946 20.3779 15.7043C19.3477 14.4582 18.7245 13.7062 18.7245 10.1789C18.7245 8.35269 18.2876 6.85428 17.4265 5.73048C16.7915 4.90027 15.9332 4.27047 14.8019 3.80502C14.7874 3.79693 14.7744 3.7863 14.7635 3.77365C14.3566 2.41104 13.2431 1.49841 11.9873 1.49841C10.7314 1.49841 9.61839 2.41104 9.21148 3.77225C9.20062 3.78443 9.1878 3.79472 9.17355 3.80268C6.53355 4.8895 5.25053 6.97462 5.25053 10.1775C5.25053 13.7062 4.62823 14.4582 3.59713 15.7028C3.52221 15.7932 3.44589 15.885 3.36816 15.9805C3.16737 16.2227 3.04016 16.5173 3.00157 16.8294C2.96298 17.1416 3.01464 17.4583 3.15042 17.7421C3.43933 18.3508 4.05509 18.7287 4.75793 18.7287H19.2218C19.9213 18.7287 20.5329 18.3513 20.8227 17.7454C20.9591 17.4615 21.0112 17.1446 20.973 16.832C20.9347 16.5195 20.8077 16.2245 20.6069 15.9819ZM11.9873 22.4761C12.6639 22.4756 13.3278 22.2919 13.9085 21.9446C14.4892 21.5973 14.9651 21.0993 15.2856 20.5034C15.3008 20.4748 15.3082 20.4428 15.3073 20.4105C15.3064 20.3783 15.2971 20.3467 15.2805 20.3191C15.2638 20.2914 15.2402 20.2685 15.2121 20.2527C15.184 20.2368 15.1522 20.2285 15.1199 20.2285H8.85561C8.82326 20.2284 8.79144 20.2367 8.76324 20.2525C8.73504 20.2683 8.71142 20.2912 8.69468 20.3189C8.67794 20.3466 8.66866 20.3781 8.66773 20.4104C8.6668 20.4428 8.67426 20.4748 8.68938 20.5034C9.00991 21.0992 9.48571 21.5971 10.0663 21.9445C10.6469 22.2918 11.3107 22.4755 11.9873 22.4761Z" fill="#353535"/>
</svg>
